# xmcd CD database file
#
# Track frame offsets:
#	150
#	39110
#	66150
#	91885
#	110745
#	133785
#	161170
#	193425
#	214872
#
# Disc length: 3203 seconds
#
# Revision: 0
# Processed by: cddbd v1.5PL3 Copyright (c) Steve Scherf et al.
# Submitted via: cdripper 1.0.7
#
DISCID=850c8109
DTITLE=Robyn Pauhl - One For My Baby
DYEAR=2003
DGENRE=Blues
TTITLE0=The Midnight sun
TTITLE1=Travelin' Blues
TTITLE2=Never Will I Mary
TTITLE3=On, Lady Be Good
TTITLE4=Someone Else is Steppin' In
TTITLE5=Caravan
TTITLE6=Over the Rainbow
TTITLE7=Little by Little
TTITLE8=One For My Baby
EXTD=YEAR: 2003
EXTT0=
EXTT1=
EXTT2=
EXTT3=
EXTT4=
EXTT5=
EXTT6=
EXTT7=
EXTT8=
PLAYORDER=
